<svg width="13" height="14" viewBox="0 0 13 14" fill="none" xmlns="http://www.w3.org/2000/svg">
<g clip-path="url(#clip0_0_26)">
<path fill-rule="evenodd" clip-rule="evenodd" d="M4.16666 -2.78163e-08C4.51811 -1.24538e-08 4.80302 0.28491 4.80302 0.636364L4.80302 5.72727C4.80302 6.07873 4.51811 6.36364 4.16666 6.36364C3.81521 6.36364 3.5303 6.07873 3.5303 5.72727L3.5303 0.636364C3.5303 0.28491 3.81521 -4.31789e-08 4.16666 -2.78163e-08Z" fill="black"/>
<path fill-rule="evenodd" clip-rule="evenodd" d="M4.37878 2.54532H0.772731C0.421277 2.54532 0.136368 2.83023 0.136368 3.18168C0.136368 3.53314 0.421277 3.81805 0.772731 3.81805H4.37878V2.54532ZM6.07575 3.81805H12.2273C12.5787 3.81805 12.8636 3.53314 12.8636 3.18168C12.8636 2.83023 12.5787 2.54532 12.2273 2.54532H6.07575V3.81805Z" fill="black"/>
<path fill-rule="evenodd" clip-rule="evenodd" d="M8.83332 14.0001C8.48187 14.0001 8.19696 13.7152 8.19696 13.3638L8.19696 8.27285C8.19696 7.9214 8.48187 7.63649 8.83332 7.63649C9.18478 7.63649 9.46969 7.9214 9.46969 8.27285L9.46969 13.3638C9.46969 13.7152 9.18478 14.0001 8.83332 14.0001Z" fill="black"/>
<path fill-rule="evenodd" clip-rule="evenodd" d="M8.6212 11.4548L12.2273 11.4548C12.5787 11.4548 12.8636 11.1699 12.8636 10.8184C12.8636 10.467 12.5787 10.1821 12.2273 10.1821L8.6212 10.1821L8.6212 11.4548ZM6.92423 10.1821L0.772708 10.1821C0.421254 10.1821 0.136344 10.467 0.136344 10.8184C0.136344 11.1699 0.421254 11.4548 0.772708 11.4548L6.92423 11.4548L6.92423 10.1821Z" fill="black"/>
</g>
<defs>
<clipPath id="clip0_0_26">
<rect width="13" height="14" fill="white"/>
</clipPath>
</defs>
</svg>
